<?xml version="1.0" encoding="iso-8859-1"?>
<!-- Generator: Adobe Illustrator 19.0.0, SVG Export Plug-In . SVG Version: 6.00 Build 0)  -->
<svg xmlns="http://www.w3.org/2000/svg" xmlns:xlink="http://www.w3.org/1999/xlink" version="1.1" id="Layer_1" x="0px" y="0px" viewBox="0 0 479.093 479.093" style="enable-background:new 0 0 479.093 479.093;" xml:space="preserve" width="512" height="512">
<g>
	<path style="fill:#FFE239;" d="M360.213,392.73c-75.6,73.69-175.08,93.1-241.6,84.45c-22.21-2.59-40.96-8.12-55.99-15.16v-0.01   c-31.36-14.68-46.51-35.92-43.07-50.6c4.7-24.61,42.66-38.56,84.99-59.74c43.15-20.66,90.65-48.55,133.48-88.98   c43.02-40.23,73.8-85.91,97.11-127.69c23.77-40.93,40.05-77.95,64.91-81.11c4.13-0.7,8.68,0.06,13.36,2.22   c20.26,9.34,43.11,44.76,46.12,100.74C464.023,223.77,438.453,321.86,360.213,392.73z"/>
	<path style="fill:#FFB83B;" d="M413.403,56.11l-1.41,17.18c-15.02-3.78-27.53,125.78-130.48,213.1   c-102.95,87.31-234.48,105.64-218.89,175.62c-31.36-14.68-46.51-35.92-43.07-50.6c4.7-24.61,42.66-38.56,84.99-59.74   c43.15-20.66,90.65-48.55,133.48-88.98c43.02-40.23,73.8-85.91,97.11-127.69c23.77-40.93,40.05-77.95,64.91-81.11   C404.173,53.19,408.723,53.95,413.403,56.11z"/>
	<polygon style="fill:#70D65B;" points="437.703,0 437.703,79.76 411.993,73.29 379.513,65.11 385.763,0  "/>
	<polygon style="fill:#58B741;" points="411.993,73.29 379.513,65.11 385.763,0 408.393,0  "/>
	<path style="fill:#FF933B;" d="M165.571,441.183c-3.252,0-6.248-2.132-7.2-5.412c-1.154-3.978,1.135-8.139,5.113-9.293   c59.448-17.249,110.134-44.853,150.651-82.045c31.754-29.148,57.283-64.117,75.879-103.937c1.753-3.753,6.216-5.375,9.969-3.622   c3.753,1.753,5.375,6.216,3.622,9.969c-19.431,41.607-46.12,78.158-79.327,108.64c-42.235,38.769-94.928,67.502-156.615,85.401   C166.967,441.087,166.263,441.183,165.571,441.183z"/>
	<path style="fill:#FF933B;" d="M409.271,220.929c-0.842,0-1.698-0.143-2.537-0.444c-3.898-1.401-5.922-5.697-4.521-9.595   c5.099-14.186,9.274-28.675,12.41-43.064c0.882-4.047,4.881-6.612,8.925-5.731c4.047,0.882,6.613,4.878,5.731,8.925   c-3.274,15.024-7.631,30.146-12.95,44.944C415.23,219.024,412.346,220.929,409.271,220.929z"/>
	<path style="fill:#FF933B;" d="M357.09,158.356c-3.009,0-5.765-1.863-6.92-4.63c-1.274-3.052-0.327-6.716,2.283-8.757   c5.305-4.15,13.185,0.546,12.03,7.173C363.863,155.691,360.695,158.356,357.09,158.356z"/>
	<path style="fill:#FF933B;" d="M388.369,152.846c-2.996,0-5.788-1.859-6.93-4.63c-1.205-2.925-0.407-6.393,1.967-8.484   c4.975-4.38,13.115-0.29,12.425,6.353C395.438,149.877,392.196,152.846,388.369,152.846z"/>
	<path style="fill:#FF933B;" d="M374.039,175.296c-3.275,0-6.219-2.191-7.179-5.319c-0.862-2.809,0.074-6.001,2.321-7.896   c5.038-4.25,12.936-0.136,12.316,6.45C381.14,172.318,377.833,175.296,374.039,175.296z"/>
	<g>
		<path style="fill:#FF933B;" d="M86.039,408.566c-6.818,0-10.071-8.814-4.851-13.222c5.269-4.449,13.503,0.32,12.217,7.109    C92.745,405.945,89.599,408.566,86.039,408.566z"/>
		<path style="fill:#FF933B;" d="M105.8,390.106c-3.232,0-6.151-2.138-7.138-5.209c-1.008-3.138,0.208-6.696,2.967-8.521    c5.526-3.655,12.999,1.431,11.471,7.925C112.312,387.648,109.248,390.106,105.8,390.106z"/>
		<path style="fill:#FF933B;" d="M112.099,413.776c-6.75,0-10.014-8.636-4.98-13.103c5.129-4.552,13.415-0.051,12.396,6.706    C118.968,411.005,115.775,413.776,112.099,413.776z"/>
	</g>
</g>















</svg>
