<?xml version="1.0" encoding="iso-8859-1"?>
<!-- Generator: Adobe Illustrator 19.0.0, SVG Export Plug-In . SVG Version: 6.00 Build 0)  -->
<svg version="1.1" id="Capa_1" xmlns="http://www.w3.org/2000/svg" xmlns:xlink="http://www.w3.org/1999/xlink" x="0px" y="0px"
	 viewBox="0 0 512 512" style="enable-background:new 0 0 512 512;" xml:space="preserve">
<path style="fill:#3BBC56;" d="M274.39,110.412c11.786-11.575,67.388-59.807,142.468-22.607c3.571,1.769,4.637,6.361,2.191,9.508
	c-15.198,19.553-69.09,76.238-145.916,16.322C273.563,112.557,273.978,111.484,274.39,110.412z"/>
<path style="fill:#30AA44;" d="M416.858,87.804c-1.884-0.934-3.753-1.799-5.612-2.627c-20.379,21.725-65.24,54.959-125.984,15.831
	c-5.016,3.872-8.695,7.264-10.873,9.403c-0.411,1.072-0.827,2.145-1.257,3.223c76.826,59.916,130.718,3.231,145.916-16.322
	C421.495,94.165,420.429,89.574,416.858,87.804z"/>
<path style="fill:#FFA92C;" d="M256,162.973c-97.599-13.29-183.232,68.589-183.232,173.805
	c0,105.198,85.615,187.097,183.232,173.804c97.599,13.29,183.232-68.589,183.232-173.804
	C439.232,231.58,353.618,149.681,256,162.973z"/>
<path style="fill:#F7991E;" d="M93.372,336.779c0-93.834,68.11-169.103,152.073-174.863
	c-93.134-6.254-172.677,73.459-172.677,174.863c0,101.387,79.526,181.118,172.675,174.863
	C161.468,505.882,93.372,430.597,93.372,336.779z"/>
<path style="fill:#93603E;" d="M256.815,181.266c4.925-39.968,21.279-106.701,75.118-145.706c3.678-2.665,3.943-8.052,0.567-11.091
	l-24.69-22.22c-3.95-3.555-10.134-2.806-13.093,1.608c-14.851,22.154-52.387,87.91-44.796,177.239
	C250.274,185.255,256.304,185.409,256.815,181.266z"/>
<path style="fill:#7F573C;" d="M310.857,14.846c1.585-2.365,4.098-3.666,6.695-3.829l-9.742-8.768
	c-3.95-3.555-10.134-2.806-13.093,1.608c-14.851,22.153-52.387,87.91-44.796,177.238c0.353,4.159,6.383,4.313,6.894,0.171
	c1.757-14.257,4.983-31.925,10.83-50.519C275.568,73.049,299.659,31.55,310.857,14.846z"/>
<g>
	<path style="fill:#EA8B18;" d="M357.048,301.832c2.03,0,4.028-0.824,5.46-2.267c0.27-0.262,0.517-0.554,0.745-0.861
		c0.439-0.591,0.796-1.244,1.046-1.937c0.135-0.376,0.247-0.765,0.321-1.148c0.103-0.505,0.154-1.01,0.154-1.514
		c0-0.505-0.051-1.01-0.154-1.515c-0.073-0.384-0.186-0.774-0.322-1.151c-0.25-0.692-0.606-1.344-1.045-1.934
		c-0.228-0.307-0.475-0.598-0.745-0.861c-1.432-1.442-3.431-2.266-5.46-2.266s-4.028,0.824-5.46,2.266
		c-0.27,0.263-0.517,0.554-0.746,0.862c-0.442,0.596-0.801,1.255-1.052,1.954c-0.133,0.37-0.242,0.754-0.314,1.13
		c-0.103,0.505-0.155,1.01-0.155,1.515s0.052,1.01,0.155,1.514c0.072,0.376,0.181,0.759,0.313,1.128
		c0.25,0.7,0.61,1.359,1.053,1.956c0.228,0.308,0.475,0.599,0.746,0.862C353.02,301.007,355.018,301.832,357.048,301.832z"/>
	<path style="fill:#EA8B18;" d="M356.017,348.706c2.03,0,4.028-0.824,5.46-2.267c0.27-0.262,0.517-0.554,0.745-0.861
		c0.439-0.591,0.796-1.244,1.046-1.937c0.135-0.376,0.247-0.765,0.321-1.148c0.103-0.505,0.154-1.01,0.154-1.514
		c0-0.505-0.051-1.01-0.154-1.515c-0.073-0.384-0.186-0.774-0.322-1.151c-0.25-0.692-0.606-1.344-1.045-1.934
		c-0.228-0.307-0.475-0.598-0.745-0.861c-1.432-1.442-3.431-2.266-5.46-2.266s-4.028,0.824-5.46,2.266
		c-0.27,0.263-0.518,0.554-0.746,0.862c-0.442,0.596-0.801,1.255-1.052,1.954c-0.133,0.37-0.242,0.754-0.314,1.131
		c-0.103,0.505-0.155,1.01-0.155,1.515s0.052,1.01,0.155,1.514c0.072,0.376,0.181,0.759,0.313,1.128
		c0.25,0.7,0.61,1.359,1.053,1.956c0.228,0.308,0.475,0.599,0.746,0.862C351.99,347.882,353.988,348.706,356.017,348.706z"/>
	<path style="fill:#EA8B18;" d="M356.532,395.58c2.03,0,4.028-0.824,5.46-2.267c0.27-0.262,0.517-0.554,0.745-0.861
		c0.439-0.591,0.796-1.244,1.046-1.937c0.135-0.376,0.247-0.765,0.321-1.148c0.103-0.505,0.154-1.01,0.154-1.514
		c0-0.505-0.051-1.01-0.154-1.515c-0.073-0.384-0.186-0.774-0.322-1.151c-0.25-0.692-0.606-1.344-1.045-1.934
		c-0.228-0.307-0.475-0.598-0.745-0.861c-1.432-1.442-3.431-2.266-5.46-2.266s-4.028,0.824-5.46,2.266
		c-0.27,0.263-0.517,0.554-0.746,0.862c-0.442,0.596-0.801,1.255-1.052,1.954c-0.133,0.37-0.242,0.754-0.314,1.131
		c-0.103,0.505-0.155,1.01-0.155,1.515s0.052,1.01,0.155,1.514c0.072,0.376,0.181,0.759,0.313,1.128
		c0.25,0.7,0.61,1.359,1.053,1.956c0.228,0.308,0.475,0.599,0.746,0.862C352.505,394.755,354.503,395.58,356.532,395.58z"/>
	<path style="fill:#EA8B18;" d="M390.827,325.555c2.028-0.095,3.985-1.011,5.349-2.519c0.258-0.275,0.491-0.577,0.704-0.895
		c0.411-0.611,0.737-1.28,0.955-1.983c0.118-0.381,0.211-0.776,0.267-1.162c0.079-0.509,0.107-1.016,0.084-1.52
		c-0.024-0.504-0.098-1.006-0.225-1.506c-0.091-0.38-0.222-0.765-0.375-1.134c-0.282-0.679-0.668-1.314-1.134-1.883
		c-0.242-0.296-0.502-0.576-0.784-0.825c-1.498-1.374-3.533-2.104-5.56-2.009s-3.985,1.011-5.348,2.518
		c-0.258,0.275-0.491,0.578-0.705,0.895c-0.414,0.616-0.742,1.291-0.959,2.001c-0.115,0.376-0.207,0.764-0.261,1.144
		c-0.079,0.509-0.108,1.016-0.084,1.52s0.099,1.006,0.225,1.505c0.089,0.373,0.216,0.749,0.366,1.112
		c0.283,0.687,0.672,1.33,1.143,1.905c0.242,0.297,0.503,0.576,0.785,0.826C386.766,324.919,388.8,325.65,390.827,325.555z"/>
	<path style="fill:#EA8B18;" d="M393.526,372.354c2.027-0.095,3.985-1.011,5.349-2.519c0.258-0.275,0.491-0.577,0.704-0.895
		c0.411-0.611,0.737-1.28,0.955-1.983c0.118-0.381,0.211-0.776,0.267-1.162c0.079-0.509,0.107-1.016,0.084-1.52
		c-0.024-0.504-0.098-1.006-0.225-1.506c-0.091-0.38-0.222-0.765-0.375-1.134c-0.282-0.679-0.668-1.314-1.134-1.883
		c-0.242-0.296-0.502-0.576-0.784-0.825c-1.498-1.374-3.533-2.104-5.56-2.009s-3.985,1.011-5.348,2.518
		c-0.258,0.275-0.491,0.578-0.705,0.895c-0.414,0.616-0.742,1.291-0.959,2.001c-0.115,0.376-0.207,0.764-0.261,1.144
		c-0.079,0.509-0.108,1.016-0.084,1.52s0.099,1.006,0.225,1.505c0.089,0.373,0.216,0.749,0.366,1.112
		c0.283,0.687,0.672,1.33,1.143,1.905c0.242,0.297,0.503,0.576,0.785,0.826C389.464,371.719,391.499,372.449,393.526,372.354z"/>
</g>
<g>
</g>
<g>
</g>
<g>
</g>
<g>
</g>
<g>
</g>
<g>
</g>
<g>
</g>
<g>
</g>
<g>
</g>
<g>
</g>
<g>
</g>
<g>
</g>
<g>
</g>
<g>
</g>
<g>
</g>
</svg>
