<svg id="Capa_1" enable-background="new 0 0 512 512" height="512" viewBox="0 0 512 512" width="512" xmlns="http://www.w3.org/2000/svg"><path d="m417 230c-18.478 0-37.467-5.75-56.44-17.09-1.825-1.09-3.397-2.557-4.612-4.301-5.615-8.059-12.034-15.95-19.08-23.455-3.999-4.259-5.161-10.452-2.979-15.871s7.312-9.078 13.146-9.377c12.808-.657 44.705-4.291 64.212-23.797 2.513-2.513 4.882-5.358 7.042-8.456 3.347-4.799 9.182-7.211 14.938-6.188 42.312 7.544 73.635 42.062 74.948 43.527 5.101 5.696 5.102 14.317.001 20.014-1.646 1.837-40.869 44.994-91.176 44.994z" fill="#78b400"/><path d="m337.116 179.198c-3.748 0-7.438-1.405-10.271-4.065-7.504-7.046-15.396-13.465-23.455-19.08-1.745-1.215-3.211-2.787-4.301-4.612-11.339-18.975-17.089-37.964-17.089-56.441 0-50.307 43.157-89.53 44.994-91.175 5.697-5.1 14.318-5.1 20.014.001 1.466 1.313 35.983 32.636 43.527 74.948 1.027 5.759-1.388 11.59-6.187 14.937-3.1 2.162-5.945 4.531-8.457 7.043-19.506 19.507-23.14 51.404-23.797 64.212-.299 5.834-3.958 10.964-9.377 13.146-1.815.73-3.715 1.086-5.601 1.086z" fill="#91cd14"/><path d="m347.801 189.886c-4.13 0-8.092-1.705-10.935-4.733-1.773-1.889-3.384-3.556-4.924-5.096-1.541-1.54-3.208-3.151-5.096-4.924-3.215-3.019-4.939-7.299-4.713-11.704 1.037-20.212 6.643-57.987 32.545-83.889 35.574-35.574 93.823-32.791 96.286-32.655 7.634.421 13.73 6.517 14.151 14.151.136 2.462 2.918 60.713-32.655 96.286-25.902 25.902-63.677 31.508-83.889 32.545-.257.013-.514.019-.77.019z" fill="#b4ee1e"/><path d="m336.867 185.153c2.843 3.028 6.804 4.733 10.935 4.733.256 0 .513-.006.769-.02 20.212-1.037 57.987-6.643 83.889-32.545 35.573-35.572 32.791-93.823 32.655-96.286-.21-3.817-1.84-7.25-4.37-9.78l-128.802 128.802c1.54 1.541 3.15 3.208 4.924 5.096z" fill="#91cd14"/><path d="m145.921 512c-48.246 0-88.229-12.312-110.919-35.002-28.729-28.729-40.822-85.188-32.348-151.03 8.673-67.391 36.741-129.135 77.008-169.401 41.838-41.838 90.885-62.708 141.851-60.375 46.691 2.144 93.458 24.379 131.687 62.608s60.464 84.997 62.608 131.688c2.34 50.961-18.537 100.013-60.375 141.851-40.266 40.267-102.01 68.335-169.401 77.008-13.841 1.78-27.27 2.653-40.111 2.653z" fill="#ff5a64"/><path d="m355.433 432.338c41.838-41.838 62.716-90.889 60.375-141.851-2.144-46.691-24.379-93.458-62.608-131.688l-318.198 318.199c22.69 22.69 62.673 35.002 110.919 35.002 12.841 0 26.271-.873 40.111-2.654 67.39-8.673 129.135-36.741 169.401-77.008z" fill="#f51e32"/><circle cx="95.945" cy="416.055" fill="#fff352" r="15"/><circle cx="157.817" cy="410.751" fill="#ffdc1e" r="15"/><circle cx="163.121" cy="348.879" fill="#fff352" r="15"/><circle cx="219.689" cy="405.448" fill="#ffdc1e" r="15"/><circle cx="106.552" cy="292.311" fill="#fff352" r="15"/><circle cx="251.509" cy="260.491" fill="#fff352" r="15"/><circle cx="308.077" cy="317.06" fill="#ffdc1e" r="15"/><circle cx="194.94" cy="203.923" fill="#fff352" r="15"/><circle cx="180.798" cy="274.633" fill="#fff352" r="15"/><circle cx="237.367" cy="331.202" fill="#ffdc1e" r="15"/><circle cx="127.765" cy="221.6" fill="#fff352" r="15"/><circle cx="290.4" cy="384.235" fill="#ffdc1e" r="15"/><circle cx="101.249" cy="354.183" fill="#fff352" r="15"/><circle cx="322.22" cy="246.349" fill="#ffdc1e" r="15"/><circle cx="265.651" cy="189.78" fill="#fff352" r="15"/><g fill="#ffdc1e"><path d="m85.339 426.661c5.858 5.858 15.355 5.858 21.213 0s5.858-15.355 0-21.213z"/><path d="m152.514 359.486c5.858 5.858 15.355 5.858 21.213 0s5.858-15.355 0-21.213z"/><path d="m262.116 249.885-21.213 21.213c5.858 5.858 15.355 5.858 21.213 0 5.857-5.858 5.857-15.356 0-21.213z"/></g></svg>